<svg width="851" height="170" viewBox="0 0 851 170" fill="none" xmlns="http://www.w3.org/2000/svg">
<path fill-rule="evenodd" clip-rule="evenodd" d="M457.378 51.0669L448.787 96.9259V117.496H469.478V97.7729L477.948 51.0669H502.874L505.415 32.7959H435.114L432.573 51.0669H457.378ZM531.387 117.496V32.7959H510.938V117.496H531.387ZM560.892 116.528C566.7 118.706 572.992 119.795 579.768 119.795C592.916 119.795 602.395 116.568 608.203 110.115C614.091 103.581 617.036 94.3849 617.036 82.5269V32.7959H596.587V83.3739C596.587 88.2946 596.062 92.0859 595.014 94.7479C593.965 97.4099 592.231 99.3056 589.811 100.435C587.471 101.564 584.124 102.129 579.768 102.129C574.121 102.129 569.846 101.121 566.942 99.1039C564.038 97.0872 562.586 94.1429 562.586 90.2709C562.586 89.6256 562.747 88.3349 563.07 86.3989L574.323 32.7959H553.874L542.621 84.0999C542.056 86.4392 541.774 88.8592 541.774 91.3599C541.774 97.4099 543.508 102.573 546.977 106.848C550.526 111.123 555.164 114.35 560.892 116.528ZM627.497 32.7959L627.376 90.3919L638.024 117.496H657.505L646.857 89.3029V50.7039L669.605 117.496H686.303L709.414 50.7039V117.496H728.895V32.7959H698.282L678.075 89.7869L658.11 32.7959H627.497ZM158.262 58.614V33.5401H25.2378V118H58.2299V92.266H140.05V69.8314H58.2299V58.614H158.262ZM166.245 118C171.847 101.707 187.306 89.9998 205.5 89.9998C223.694 89.9998 239.153 101.707 244.755 118H273.101H280.999H306.093V67.5679L393.192 118H426.184V33.5401H393.192V84.8973L306.093 33.5401H273.101V106.327L223.856 33.5401H187.169L130.555 118H166.245ZM205.619 57.6283L189.966 81.9998H221.398L205.619 57.6283Z" fill="white"/>
<circle cx="205.5" cy="131.5" r="26.5" fill="#BCFF1E"/>
<rect x="743" y="72" width="108" height="46" fill="#454545"/>
<path d="M763.023 106V82.7273H772.341C774.053 82.7273 775.481 82.9811 776.625 83.4886C777.769 83.9962 778.629 84.7008 779.205 85.6023C779.78 86.4962 780.068 87.5265 780.068 88.6932C780.068 89.6023 779.886 90.4015 779.523 91.0909C779.159 91.7727 778.659 92.3333 778.023 92.7727C777.394 93.2045 776.674 93.5114 775.864 93.6932V93.9205C776.75 93.9583 777.58 94.2083 778.352 94.6705C779.133 95.1326 779.765 95.7803 780.25 96.6136C780.735 97.4394 780.977 98.4242 780.977 99.5682C780.977 100.803 780.67 101.905 780.057 102.875C779.451 103.837 778.553 104.598 777.364 105.159C776.174 105.72 774.708 106 772.966 106H763.023ZM767.943 101.977H771.955C773.326 101.977 774.326 101.716 774.955 101.193C775.583 100.663 775.898 99.9583 775.898 99.0795C775.898 98.4356 775.742 97.8674 775.432 97.375C775.121 96.8826 774.678 96.4962 774.102 96.2159C773.534 95.9356 772.856 95.7955 772.068 95.7955H767.943V101.977ZM767.943 92.4659H771.591C772.265 92.4659 772.864 92.3485 773.386 92.1136C773.917 91.8712 774.333 91.5303 774.636 91.0909C774.947 90.6515 775.102 90.125 775.102 89.5114C775.102 88.6705 774.803 87.9924 774.205 87.4773C773.614 86.9621 772.773 86.7045 771.682 86.7045H767.943V92.4659ZM792.043 106.341C790.247 106.341 788.702 105.977 787.406 105.25C786.118 104.515 785.126 103.477 784.429 102.136C783.732 100.788 783.384 99.1932 783.384 97.3523C783.384 95.5568 783.732 93.9811 784.429 92.625C785.126 91.2689 786.107 90.2121 787.372 89.4545C788.645 88.697 790.137 88.3182 791.849 88.3182C793.001 88.3182 794.073 88.5038 795.065 88.875C796.065 89.2386 796.937 89.7879 797.679 90.5227C798.429 91.2576 799.012 92.1818 799.429 93.2955C799.846 94.4015 800.054 95.697 800.054 97.1818V98.5114H785.315V95.5114H795.497C795.497 94.8144 795.346 94.197 795.043 93.6591C794.74 93.1212 794.319 92.7008 793.781 92.3977C793.251 92.0871 792.634 91.9318 791.929 91.9318C791.194 91.9318 790.543 92.1023 789.974 92.4432C789.414 92.7765 788.974 93.2273 788.656 93.7955C788.338 94.3561 788.175 94.9811 788.168 95.6705V98.5227C788.168 99.3864 788.327 100.133 788.645 100.761C788.971 101.39 789.429 101.875 790.02 102.216C790.611 102.557 791.312 102.727 792.122 102.727C792.66 102.727 793.152 102.652 793.599 102.5C794.046 102.348 794.429 102.121 794.747 101.818C795.065 101.515 795.308 101.144 795.474 100.705L799.952 101C799.724 102.076 799.259 103.015 798.554 103.818C797.857 104.614 796.955 105.235 795.849 105.682C794.751 106.121 793.482 106.341 792.043 106.341ZM812.497 88.5455V92.1818H801.986V88.5455H812.497ZM804.372 84.3636H809.213V100.636C809.213 101.083 809.281 101.432 809.418 101.682C809.554 101.924 809.743 102.095 809.986 102.193C810.236 102.292 810.524 102.341 810.849 102.341C811.077 102.341 811.304 102.322 811.531 102.284C811.759 102.239 811.933 102.205 812.054 102.182L812.815 105.784C812.573 105.86 812.232 105.947 811.793 106.045C811.353 106.152 810.819 106.216 810.19 106.239C809.024 106.284 808.001 106.129 807.122 105.773C806.251 105.417 805.573 104.864 805.088 104.114C804.603 103.364 804.365 102.417 804.372 101.273V84.3636ZM820.628 106.33C819.514 106.33 818.522 106.136 817.651 105.75C816.779 105.356 816.09 104.777 815.582 104.011C815.082 103.239 814.832 102.277 814.832 101.125C814.832 100.155 815.01 99.3409 815.366 98.6818C815.723 98.0227 816.207 97.4924 816.821 97.0909C817.435 96.6894 818.132 96.3864 818.912 96.1818C819.7 95.9773 820.526 95.8333 821.389 95.75C822.404 95.6439 823.223 95.5455 823.844 95.4545C824.465 95.3561 824.916 95.2121 825.196 95.0227C825.476 94.8333 825.616 94.553 825.616 94.1818V94.1136C825.616 93.3939 825.389 92.8371 824.935 92.4432C824.488 92.0492 823.851 91.8523 823.026 91.8523C822.154 91.8523 821.461 92.0455 820.946 92.4318C820.431 92.8106 820.09 93.2879 819.923 93.8636L815.446 93.5C815.673 92.4394 816.12 91.5227 816.787 90.75C817.454 89.9697 818.313 89.3712 819.366 88.9545C820.427 88.5303 821.654 88.3182 823.048 88.3182C824.018 88.3182 824.946 88.4318 825.832 88.6591C826.726 88.8864 827.518 89.2386 828.207 89.7159C828.904 90.1932 829.454 90.8068 829.855 91.5568C830.257 92.2992 830.457 93.1894 830.457 94.2273V106H825.866V103.58H825.73C825.45 104.125 825.075 104.606 824.605 105.023C824.135 105.432 823.571 105.754 822.912 105.989C822.253 106.216 821.491 106.33 820.628 106.33ZM822.014 102.989C822.726 102.989 823.355 102.848 823.901 102.568C824.446 102.28 824.874 101.894 825.185 101.409C825.495 100.924 825.651 100.375 825.651 99.7614V97.9091C825.499 98.0076 825.291 98.0985 825.026 98.1818C824.768 98.2576 824.476 98.3295 824.151 98.3977C823.825 98.4583 823.499 98.5152 823.173 98.5682C822.848 98.6136 822.552 98.6553 822.287 98.6932C821.719 98.7765 821.223 98.9091 820.798 99.0909C820.374 99.2727 820.045 99.5189 819.81 99.8295C819.575 100.133 819.457 100.511 819.457 100.966C819.457 101.625 819.696 102.129 820.173 102.477C820.658 102.818 821.272 102.989 822.014 102.989Z" fill="white"/>
</svg>
